<?xml version="1.0" standalone="no"?>
<!DOCTYPE svg PUBLIC "-//W3C//DTD SVG 20010904//EN"
 "http://www.w3.org/TR/2001/REC-SVG-20010904/DTD/svg10.dtd">
<svg version="1.0" xmlns="http://www.w3.org/2000/svg"
 width="500.000000pt" height="500.000000pt" viewBox="0 0 500.000000 500.000000"
 preserveAspectRatio="xMidYMid meet">
<metadata>
Created by potrace 1.11, written by Peter Selinger 2001-2013
</metadata>
<g transform="translate(0.000000,500.000000) scale(0.100000,-0.100000)"
fill="#000000" stroke="none">
<path d="M0 2500 l0 -2500 2500 0 2500 0 0 2500 0 2500 -2500 0 -2500 0 0
-2500z m1615 2313 c238 -54 397 -160 475 -318 88 -176 75 -432 -30 -595 -47
-72 -155 -169 -249 -222 l-83 -46 52 -27 c103 -52 189 -171 221 -305 19 -82
15 -230 -10 -334 -77 -319 -342 -528 -731 -575 -64 -8 -267 -11 -620 -9 l-526
3 213 1220 c117 671 212 1224 213 1228 0 5 222 7 493 4 448 -4 500 -6 582 -24z
m1439 -1250 c-2 -10 -72 -418 -155 -908 -157 -931 -172 -1003 -241 -1125 -166
-291 -441 -450 -783 -450 -441 0 -707 243 -732 668 l-6 102 250 0 250 0 5 -90
c9 -157 65 -235 187 -261 73 -15 143 -5 218 31 100 49 177 158 208 292 7 35
77 439 155 898 78 459 143 841 145 848 3 9 63 12 254 12 232 0 249 -1 245 -17z
m1301 -930 c238 -54 397 -160 475 -318 88 -176 75 -432 -30 -595 -47 -72 -155
-169 -249 -222 l-83 -46 52 -27 c101 -51 190 -172 221 -300 19 -80 14 -237
-10 -339 -76 -319 -342 -528 -731 -575 -64 -8 -267 -11 -620 -9 l-526 3 213
1220 c117 671 212 1224 213 1228 0 5 222 7 493 4 448 -4 500 -6 582 -24z"/>
<path d="M966 4409 c-3 -13 -26 -143 -51 -289 -25 -146 -48 -276 -51 -288 l-5
-24 233 4 c262 5 302 14 406 85 112 77 169 217 142 351 -10 47 -20 65 -56 99
-68 66 -110 75 -381 80 l-232 5 -5 -23z"/>
<path d="M796 3423 c-18 -85 -106 -595 -106 -612 0 -21 5 -21 218 -21 245 0
309 8 401 52 122 58 194 157 214 294 15 102 -2 172 -55 230 -65 71 -93 77
-399 82 l-267 4 -6 -29z"/>
<path d="M3706 2229 c-3 -13 -26 -143 -51 -289 -25 -146 -48 -276 -51 -288
l-5 -24 233 4 c262 5 302 14 406 85 112 77 169 217 142 351 -10 47 -20 65 -56
99 -68 66 -110 75 -381 80 l-232 5 -5 -23z"/>
<path d="M3536 1243 c-18 -85 -106 -595 -106 -612 0 -21 4 -21 223 -21 311 0
400 23 507 130 122 121 146 340 48 446 -65 71 -93 77 -399 82 l-267 4 -6 -29z"/>
</g>
</svg>
